# xmcd
#
# Track frame offsets:
#	150
#	21417
#	44542
#	65160
#	90722
#	113330
#	131512
#	157262
#	182820
#	206650
#	226117
#
# Disc length: 3310 seconds
#
# Revision: 0
# Processed by: cddbd v1.5.2PL0 Copyright (c) Steve Scherf et al.
# Submitted via: EZCDAudioConverter 8.0.2.1
#
DISCID=980cec0b
DTITLE=Tuấn Vũ, Thảo Sương - 18 Trăng Tròn
DYEAR=1995
DGENRE=
TTITLE0=Tuấn Vũ, Thảo Sương - Ngẫu hứng lý qua cầu
TTITLE1=Thảo Sương - Còn thương rau đắng mọc sau hè
TTITLE2=Tuấn Vũ, Thảo Sương - Mấy nhịp cầu tre
TTITLE3=Tuấn Vũ - Tôi bán đường tơ
TTITLE4=Tuấn Vũ, Thảo Sương - Giăng câu
TTITLE5=Thảo Sương - Em đi chùa hương
TTITLE6=Tuấn Vũ, Thảo Sương - 18 Trăng Tròn
TTITLE7=Tuấn Vũ - Cô hàng cà phê
TTITLE8=Thảo Sương - Duyên tình
TTITLE9=Tuấn Vũ, Thảo Sương - Cây đàn bỏ quên
TTITLE10=MC - Giới thiệu
EXTD=
EXTT0=
EXTT1=
EXTT2=
EXTT3=
EXTT4=
EXTT5=
EXTT6=
EXTT7=
EXTT8=
EXTT9=
EXTT10=
PLAYORDER=
